<svg xmlns="http://www.w3.org/2000/svg" width="21" height="20" viewBox="0 0 21 20" fill="none">
<path d="M16.026 9.90405V12.4124C16.026 14.0851 14.67 15.441 12.9973 15.441H7.94956C6.27688 15.441 4.9209 14.0851 4.9209 12.4124V7.3646C4.9209 5.69192 6.27688 4.33594 7.94956 4.33594H10.4734" stroke="white" stroke-width="1.00955" stroke-linecap="round"/>
<path fill-rule="evenodd" clip-rule="evenodd" d="M16.0262 7.8692C15.7474 7.8692 15.5214 7.64321 15.5214 7.36443V5.5217L11.1412 9.90192C10.944 10.099 10.6244 10.099 10.4273 9.90192C10.2302 9.70479 10.2302 9.38518 10.4273 9.18805L14.7755 4.83991L12.9979 4.83991C12.7191 4.83991 12.4931 4.61391 12.4931 4.33513C12.4931 4.05635 12.7191 3.83035 12.9979 3.83035L16.0265 3.83035C16.3053 3.83035 16.5313 4.05635 16.5313 4.33513C16.5313 4.3417 16.5312 4.34823 16.5309 4.35473L16.5309 7.36443C16.5309 7.64321 16.3049 7.8692 16.0262 7.8692Z" fill="white"/>
</svg>